Coordinates
version=1
nRows=11
nColumns=36
inDegrees=yes

Units are S.I. units (second, meters, Newtons, ...)
If the header above contains a line with 'inDegrees', this indicates whether rotational values are in degrees (yes) or radians (no).

endheader
time	pelvis_tilt	pelvis_list	pelvis_rotation	pelvis_tx	pelvis_ty	pelvis_tz	hip_flexion_r	hip_adduction_r	hip_rotation_r	knee_angle_r	knee_angle_r_beta	ankle_angle_r	subtalar_angle_r	mtp_angle_r	hip_flexion_l	hip_adduction_l	hip_rotation_l	knee_angle_l	knee_angle_l_beta	ankle_angle_l	subtalar_angle_l	mtp_angle_l	lumbar_extension	lumbar_bending	lumbar_rotation	arm_flex_r	arm_add_r	arm_rot_r	elbow_flex_r	pro_sup_r	arm_flex_l	arm_add_l	arm_rot_l	elbow_flex_l	pro_sup_l
      3.60416670	    -10.56794385	     -0.93898012	      1.33479862	      0.10929213	      0.91134821	     -0.15136866	      9.63615578	     -3.48801600	     -5.65057021	      0.41252041	      0.00719984	     -0.22566337	     -9.10456193	     -7.49999987	     12.74278947	     -4.86097240	     -5.28177671	      0.48676504	      0.00849565	      1.81814412	      9.49891970	     -7.49999987	     -5.26560925	      1.70063815	     -2.78207440	    -13.60800322	    -27.20366345	      3.41460787	     31.14218692	     65.78508482	    165.17253405	   -155.78250841	    182.77124872	     37.86324125	     60.73424148
      3.60833330	    -10.52010285	     -0.89649672	      1.31680844	      0.10494438	      0.91145826	     -0.14694297	      9.67965505	     -3.50759458	     -5.51798168	      0.42300772	      0.00738288	     -0.20629738	     -9.26217268	     -7.49999987	     12.75868021	     -4.83994605	     -5.18461301	      0.50771379	      0.00886128	      1.74737649	      9.11986241	     -7.49999987	     -5.51607227	      1.56819587	     -2.68605738	    -13.55134503	    -26.85743859	      4.03203116	     30.59840989	     65.63979283	    165.46391938	   -155.59452944	    184.67701785	     36.64013088	     60.36262316
      3.61250000	    -10.33169172	     -0.87135924	      1.44687126	      0.10956683	      0.91195986	     -0.15112785	      9.47986140	     -3.58696684	     -5.53899876	      0.45643856	      0.00796636	     -0.24270260	     -9.25685188	     -7.49999987	     12.59564367	     -4.79353851	     -5.09657485	      0.53102335	      0.00926811	      1.68858718	      9.15227441	     -7.49999987	     -5.75740124	      1.45923968	     -2.75748062	    -14.16395596	    -26.45491135	      4.24876401	     30.31657830	     65.63642510	    164.77322013	   -155.97546707	    185.03255314	     36.20459538	     60.33504205
      3.61666670	     -9.82622179	     -0.86916318	      1.55437556	      0.11377459	      0.91561117	     -0.14764098	      8.87384850	     -3.56689802	     -5.73857429	      0.46701200	      0.00815090	     -0.13889606	     -8.93403454	     -7.49999987	     12.01014258	     -4.83651070	     -5.00979036	      0.51524814	      0.00899278	      1.64847233	      9.15719127	     -7.49999987	     -6.31743642	      1.42262314	     -2.88253554	    -13.95523870	    -26.01868737	      6.49075626	     28.58343937	     65.63999985	    165.22644084	   -156.13894153	    188.36659764	     33.38610747	     60.00348907
      3.62083330	     -9.67242527	     -0.88967673	      1.65225671	      0.11355082	      0.91573029	     -0.14717778	      8.61824344	     -3.52738556	     -5.85428772	      0.46944394	      0.00819334	     -0.01457487	     -8.69532259	     -7.49999987	     11.80032928	     -4.88695524	     -5.04315113	      0.50507862	      0.00881528	      1.60706928	      9.28999169	     -7.49999987	     -6.27436420	      1.31645890	     -2.65885951	    -14.40564205	    -25.70325070	     10.34783900	     27.07483875	     65.30452461	    165.57722905	   -155.84282637	    192.95538968	     31.24145874	     59.04252230
      3.62500000	     -9.64924984	     -0.89523308	      1.69230814	      0.10891481	      0.91562651	     -0.15175899	      8.60222406	     -3.56694481	     -5.85878599	      0.49359079	      0.00861478	     -0.01227430	     -8.70609127	     -7.49999987	     11.80162714	     -4.83493724	     -5.03675819	      0.53526164	      0.00934208	      1.58578109	      9.28629069	     -7.49999987	     -6.55889964	      1.32620875	     -2.66962923	    -14.79581814	    -25.28901889	     10.48628683	     26.98568247	     65.28962479	    165.04626329	   -156.22337174	    193.14613521	     31.05624374	     59.02112120
      3.62916670	     -9.40958808	     -0.82344229	      1.82246758	      0.11328996	      0.91592701	     -0.15617749	      8.23670162	     -3.76645580	     -5.95038506	      0.45771026	      0.00798855	     -0.05113489	     -8.73543736	     -7.49999987	     11.49856787	     -4.64126199	     -4.97044528	      0.49614509	      0.00865937	      1.59461858	      9.27783424	     -7.49999987	     -6.74636779	      1.40661470	     -2.90742594	    -15.32049710	    -25.17884400	     10.80548980	     26.59141930	     65.22134094	    164.29838788	   -156.89646818	    193.73707912	     30.45052797	     58.95810464
      3.63333330	     -8.96523328	     -0.80465407	      1.92694086	      0.11722244	      0.91632864	     -0.15260879	      7.62391071	     -3.81764124	     -6.26153509	      0.43611953	      0.00761172	      0.23440344	     -8.22611620	     -7.49999987	     10.92926997	     -4.57408172	     -4.84932017	      0.46626877	      0.00813793	      1.68561560	      9.28562542	     -7.49999987	     -7.17828826	      1.40688770	     -3.14789311	    -14.67081958	    -25.19238449	     15.05108876	     24.20637873	     64.35351962	    164.85904129	   -157.11568625	    199.09306073	     26.71234657	     57.77611909
      3.63750000	     -8.77974436	     -0.82352046	      1.92287287	      0.11673215	      0.91599706	     -0.15193084	      7.33078451	     -3.82711243	     -6.28866364	      0.42872004	      0.00748258	      0.31299545	     -8.26016805	     -7.49999987	     10.59758847	     -4.55773164	     -4.83246584	      0.43118148	      0.00752554	      1.85325153	      9.31377358	     -7.49999987	     -7.41141047	      1.41524399	     -3.22818225	    -14.84060973	    -25.20962389	     16.27412785	     24.12217133	     63.03606269	    164.38510910	   -157.22594428	    200.30781993	     26.09191519	     56.57215693
      3.64166670	     -8.80748815	     -0.82990735	      1.87228781	      0.11658120	      0.91230836	     -0.15252133	      7.31251219	     -3.82041047	     -6.21243105	      0.41574291	      0.00725608	      0.27757502	     -8.66483111	     -7.49999987	     10.52458068	     -4.55284990	     -4.87075974	      0.40190049	      0.00701449	      2.10120752	      9.43385998	     -7.49999987	     -7.22307921	      1.39179348	     -3.29771931	    -14.68444653	    -25.66122229	     21.81147571	     23.29809573	     58.87900044	    164.33203588	   -156.83998056	    204.80492027	     25.20789290	     51.65415014
      3.64583330	     -8.62376288	     -0.86580732	      1.83255673	      0.11154565	      0.91574430	     -0.14705227	      7.15579815	     -3.69345048	     -6.30807123	      0.39583015	      0.00690854	      0.61463762	     -8.32769482	     -7.49999987	     10.31812683	     -4.65518975	     -4.72001286	      0.36276690	      0.00633148	      2.13982976	      9.21898553	     -7.49999987	     -7.69749931	      1.29152199	     -3.65266576	    -14.33039829	    -25.32574222	     21.70213096	     22.93185259	     58.21456641	    164.14049421	   -156.66566755	    205.06465782	     24.78054980	     51.05796457
